name rise45.9887peak57.8056fall74.9286.mot
datacolumns 19
datarows 32
range 11.35662600000000 11.40828900000000
endheader
time	ground_force1_vx	ground_force1_vy	ground_force1_vz	ground_force1_px	ground_force1_py	ground_force1_pz	ground_force2_vx	ground_force2_vy	ground_force2_vz	ground_force2_px	ground_force2_py	ground_force2_pz	ground_torque1_x	ground_torque1_y	ground_torque1_z	ground_torque2_x	ground_torque2_y	ground_torque2_z	
11.35662600000000	-3.36894400000000	40.26112000000000	-10.30523600000000	0.33829300000000	0.00000000000000	0.08127100000000	-52.22080600000000	830.52397599999995	-55.70070800000000	0.15722500000000	0.00000000000000	-0.09630400000000	0.00000000000000	-7.55975800000000	0.00000000000000	0.00000000000000	-24.56380000000000	0.00000000000000	
11.35829300000000	-3.70814700000000	47.06322800000000	-11.64210700000000	0.34320900000000	0.00000000000000	0.08162800000000	-53.08732000000000	828.76149499999997	-55.51966400000000	0.15622800000000	0.00000000000000	-0.09625600000000	0.00000000000000	-8.61607400000000	0.00000000000000	0.00000000000000	-24.56167600000000	0.00000000000000	
11.35996000000000	-3.98336400000000	53.91254300000000	-12.87611200000000	0.34784100000000	0.00000000000000	0.08195400000000	-53.96686300000000	826.85156900000004	-55.31454700000000	0.15524500000000	0.00000000000000	-0.09620500000000	0.00000000000000	-9.61138900000000	0.00000000000000	0.00000000000000	-24.55886100000000	0.00000000000000	
11.36162900000000	-4.18382300000000	60.71583900000000	-13.97998400000000	0.35222800000000	0.00000000000000	0.08225600000000	-54.85868400000000	824.79146100000003	-55.08506000000000	0.15427800000000	0.00000000000000	-0.09615000000000	0.00000000000000	-10.52381600000000	0.00000000000000	0.00000000000000	-24.55527900000000	0.00000000000000	
11.36328900000000	-4.30224400000000	67.40268000000000	-14.93520400000000	0.35640000000000	0.00000000000000	0.08253600000000	-55.76195700000000	822.57845799999996	-54.83093400000000	0.15332600000000	0.00000000000000	-0.09609100000000	0.00000000000000	-11.33766600000000	0.00000000000000	0.00000000000000	-24.55083500000000	0.00000000000000	
11.36495600000000	-4.33486200000000	73.92748600000000	-15.73217300000000	0.36038300000000	0.00000000000000	0.08280000000000	-56.67577700000000	820.20987800000000	-54.55193200000000	0.15239100000000	0.00000000000000	-0.09602800000000	0.00000000000000	-12.04377300000000	0.00000000000000	0.00000000000000	-24.54542500000000	0.00000000000000	
11.36662800000000	-4.28115800000000	80.26921900000001	-16.36964000000000	0.36419700000000	0.00000000000000	0.08304900000000	-57.59916500000000	817.68307400000003	-54.24784700000000	0.15147400000000	0.00000000000000	-0.09596100000000	0.00000000000000	-12.63922700000000	0.00000000000000	0.00000000000000	-24.53892900000000	0.00000000000000	
11.36828900000000	-4.14338000000000	86.42909800000000	-16.85353400000000	0.36785700000000	0.00000000000000	0.08328700000000	-58.53106400000000	814.99543800000004	-53.91850700000000	0.15057500000000	0.00000000000000	-0.09589100000000	0.00000000000000	-13.12664200000000	0.00000000000000	0.00000000000000	-24.53121400000000	0.00000000000000	
11.36995800000000	-3.92592300000000	92.42689400000000	-17.19541200000000	0.37137700000000	0.00000000000000	0.08351400000000	-59.47034200000000	812.14440800000000	-53.56377200000000	0.14969400000000	0.00000000000000	-0.09581600000000	0.00000000000000	-13.51309300000000	0.00000000000000	0.00000000000000	-24.52213400000000	0.00000000000000	
11.37162400000000	-3.63465200000000	98.29634400000000	-17.41072000000000	0.37476700000000	0.00000000000000	0.08373400000000	-60.41579000000000	809.12747700000000	-53.18354200000000	0.14883200000000	0.00000000000000	-0.09573700000000	0.00000000000000	-13.80887100000000	0.00000000000000	0.00000000000000	-24.51153000000000	0.00000000000000	
11.37329100000000	-3.27622400000000	104.08022300000000	-17.51703500000000	0.37803800000000	0.00000000000000	0.08394600000000	-61.36612400000000	805.94219399999997	-52.77775000000000	0.14799100000000	0.00000000000000	-0.09565400000000	0.00000000000000	-14.02617800000000	0.00000000000000	0.00000000000000	-24.49922600000000	0.00000000000000	
11.37495500000000	-2.85747300000000	109.82553799999999	-17.53244000000000	0.38119500000000	0.00000000000000	0.08415300000000	-62.31998700000000	802.58617500000003	-52.34637200000000	0.14716900000000	0.00000000000000	-0.09556600000000	0.00000000000000	-14.17790000000000	0.00000000000000	0.00000000000000	-24.48503900000000	0.00000000000000	
11.37662800000000	-2.38489200000000	115.57920100000000	-17.47413900000000	0.38424700000000	0.00000000000000	0.08435500000000	-63.27594800000000	799.05710699999997	-51.88942200000000	0.14636700000000	0.00000000000000	-0.09547400000000	0.00000000000000	-14.27652000000000	0.00000000000000	0.00000000000000	-24.46876800000000	0.00000000000000	
11.37829200000000	-1.86423600000000	121.38444400000000	-17.35738000000000	0.38719600000000	0.00000000000000	0.08455300000000	-64.23250600000000	795.35275700000000	-51.40695500000000	0.14558600000000	0.00000000000000	-0.09537800000000	0.00000000000000	-14.33325600000000	0.00000000000000	0.00000000000000	-24.45020300000000	0.00000000000000	
11.37995500000000	-1.30025700000000	127.27812000000000	-17.19471400000000	0.39004800000000	0.00000000000000	0.08474800000000	-65.18808900000001	791.47098000000005	-50.89907200000000	0.14482600000000	0.00000000000000	-0.09527700000000	0.00000000000000	-14.35743700000000	0.00000000000000	0.00000000000000	-24.42912100000000	0.00000000000000	
11.38162900000000	-0.69657100000000	133.28894500000001	-16.99558600000000	0.39280600000000	0.00000000000000	0.08494100000000	-66.14105800000000	787.40972599999998	-50.36591300000000	0.14408700000000	0.00000000000000	-0.09517200000000	0.00000000000000	-14.35613400000000	0.00000000000000	0.00000000000000	-24.40528900000000	0.00000000000000	
11.38329400000000	-0.05563300000000	139.43663699999999	-16.76623800000000	0.39547300000000	0.00000000000000	0.08513200000000	-67.08970700000000	783.16704800000002	-49.80766800000000	0.14336800000000	0.00000000000000	-0.09506300000000	0.00000000000000	-14.33402900000000	0.00000000000000	0.00000000000000	-24.37846200000000	0.00000000000000	
11.38496000000000	0.62117900000000	145.73186600000000	-16.50986500000000	0.39805100000000	0.00000000000000	0.08532100000000	-68.03227099999999	778.74111100000005	-49.22457100000000	0.14266900000000	0.00000000000000	-0.09494900000000	0.00000000000000	-14.29348000000000	0.00000000000000	0.00000000000000	-24.34838700000000	0.00000000000000	
11.38662300000000	1.33342000000000	152.17686300000000	-16.22697700000000	0.40054100000000	0.00000000000000	0.08550900000000	-68.96691900000000	774.13020100000006	-48.61690200000000	0.14199100000000	0.00000000000000	-0.09483100000000	0.00000000000000	-14.23476900000000	0.00000000000000	0.00000000000000	-24.31480200000000	0.00000000000000	
11.38829600000000	2.08137600000000	158.76652100000001	-15.91589000000000	0.40294600000000	0.00000000000000	0.08569600000000	-69.89176800000000	769.33273499999996	-47.98499100000000	0.14133300000000	0.00000000000000	-0.09470800000000	0.00000000000000	-14.15644400000000	0.00000000000000	0.00000000000000	-24.27743400000000	0.00000000000000	
11.38996200000000	2.86584000000000	165.48982599999999	-15.57329700000000	0.40526600000000	0.00000000000000	0.08588300000000	-70.80487800000000	764.34727099999998	-47.32921500000000	0.14069500000000	0.00000000000000	-0.09458100000000	0.00000000000000	-14.05575000000000	0.00000000000000	0.00000000000000	-24.23600800000000	0.00000000000000	
11.39162700000000	3.68788700000000	172.33143100000001	-15.19486100000000	0.40750200000000	0.00000000000000	0.08606900000000	-71.70426100000000	759.17251999999996	-46.65000000000000	0.14007600000000	0.00000000000000	-0.09445000000000	0.00000000000000	-13.92907500000000	0.00000000000000	0.00000000000000	-24.19023800000000	0.00000000000000	
11.39329100000000	4.54865700000000	179.27325900000000	-14.77577000000000	0.40965500000000	0.00000000000000	0.08625500000000	-72.58788000000000	753.80735200000004	-45.94782100000000	0.13947600000000	0.00000000000000	-0.09431500000000	0.00000000000000	-13.77238600000000	0.00000000000000	0.00000000000000	-24.13983500000000	0.00000000000000	
11.39495400000000	5.44917300000000	186.29597899999999	-14.31124000000000	0.41172400000000	0.00000000000000	0.08644100000000	-73.45365800000000	748.25081599999999	-45.22320500000000	0.13889300000000	0.00000000000000	-0.09417500000000	0.00000000000000	-13.58162800000000	0.00000000000000	0.00000000000000	-24.08450700000000	0.00000000000000	
11.39662500000000	6.39019000000000	193.38030200000000	-13.79691800000000	0.41371000000000	0.00000000000000	0.08662700000000	-74.29948000000000	742.50214600000004	-44.47672300000000	0.13832800000000	0.00000000000000	-0.09403100000000	0.00000000000000	-13.35304700000000	0.00000000000000	0.00000000000000	-24.02395600000000	0.00000000000000	
11.39829100000000	7.37208400000000	200.50801700000000	-13.22919300000000	0.41561200000000	0.00000000000000	0.08681300000000	-75.12319800000000	736.56077300000004	-43.70900000000000	0.13778000000000	0.00000000000000	-0.09388300000000	0.00000000000000	-13.08345500000000	0.00000000000000	0.00000000000000	-23.95788400000000	0.00000000000000	
11.39995700000000	8.39478400000000	207.66275300000001	-12.60540000000000	0.41743100000000	0.00000000000000	0.08700000000000	-75.92263600000000	730.42634399999997	-42.92070600000000	0.13724700000000	0.00000000000000	-0.09373100000000	0.00000000000000	-12.77039700000000	0.00000000000000	0.00000000000000	-23.88599200000000	0.00000000000000	
11.40162900000000	9.45774600000000	214.83046200000001	-11.92392100000000	0.41916600000000	0.00000000000000	0.08718600000000	-76.69559599999999	724.09872600000006	-42.11256100000000	0.13672800000000	0.00000000000000	-0.09357600000000	0.00000000000000	-12.41225000000000	0.00000000000000	0.00000000000000	-23.80798000000000	0.00000000000000	
11.40329400000000	10.55994700000000	221.99964700000001	-11.18420400000000	0.42081700000000	0.00000000000000	0.08737300000000	-77.43986300000000	717.57802200000003	-41.28533000000000	0.13622400000000	0.00000000000000	-0.09341600000000	0.00000000000000	-12.00825300000000	0.00000000000000	0.00000000000000	-23.72355100000000	0.00000000000000	
11.40495900000000	11.69992600000000	229.16136200000000	-10.38671000000000	0.42238300000000	0.00000000000000	0.08756000000000	-78.15320900000000	710.86458500000003	-40.43982500000000	0.13573200000000	0.00000000000000	-0.09325200000000	0.00000000000000	-11.55847000000000	0.00000000000000	0.00000000000000	-23.63241100000000	0.00000000000000	
11.40662200000000	12.87582500000000	236.30904000000001	-9.53280300000000	0.42386300000000	0.00000000000000	0.08774700000000	-78.83340099999999	703.95902000000001	-39.57690200000000	0.13525100000000	0.00000000000000	-0.09308500000000	0.00000000000000	-11.06371400000000	0.00000000000000	0.00000000000000	-23.53426900000000	0.00000000000000	
11.40828900000000	14.08545800000000	243.43819800000000	-8.62460800000000	0.42525800000000	0.00000000000000	0.08793400000000	-79.47820900000001	696.86220100000003	-38.69746200000000	0.13478000000000	0.00000000000000	-0.09291500000000	0.00000000000000	-10.52544300000000	0.00000000000000	0.00000000000000	-23.42883800000000	0.00000000000000	
